<svg width="113" height="113" viewBox="0 0 113 113" fill="none" xmlns="http://www.w3.org/2000/svg">
<path d="M56.098 112.196C87.0801 112.196 112.196 87.0801 112.196 56.098C112.196 25.1159 87.0801 0 56.098 0C25.1159 0 0 25.1159 0 56.098C0 87.0801 25.1159 112.196 56.098 112.196Z" fill="#007AB9"/>
<path d="M89.6159 60.612V83.74H76.2069V62.162C76.2069 56.744 74.2709 53.044 69.4159 53.044C65.7109 53.044 63.5099 55.535 62.5379 57.947C62.1849 58.809 62.0939 60.006 62.0939 61.215V83.739H48.6839C48.6839 83.739 48.8639 47.193 48.6839 43.41H62.0949V49.125C62.0679 49.17 62.0299 49.214 62.0059 49.257H62.0949V49.125C63.8769 46.383 67.0549 42.463 74.1799 42.463C83.0019 42.463 89.6159 48.227 89.6159 60.612ZM34.6559 23.97C30.0689 23.97 27.0679 26.981 27.0679 30.937C27.0679 34.809 29.9819 37.907 34.4799 37.907H34.5669C39.2439 37.907 42.1519 34.809 42.1519 30.937C42.0629 26.981 39.2439 23.97 34.6559 23.97ZM27.8649 83.74H41.2699V43.41H27.8649V83.74Z" fill="#F1F2F2"/>
</svg>
