<svg width="17" height="16" viewBox="0 0 17 16" fill="none" xmlns="http://www.w3.org/2000/svg">
<path fill-rule="evenodd" clip-rule="evenodd" d="M8.20003 0C3.67186 0 0 3.67233 0 8.20251C0 11.8267 2.34955 14.9013 5.6077 15.9859C6.01749 16.0618 6.16798 15.808 6.16798 15.5913C6.16798 15.3957 6.16033 14.7495 6.15686 14.0642C3.87554 14.5603 3.39417 13.0964 3.39417 13.0964C3.02116 12.1483 2.48371 11.8962 2.48371 11.8962C1.73975 11.3871 2.53979 11.3975 2.53979 11.3975C3.36323 11.4554 3.79682 12.2428 3.79682 12.2428C4.52817 13.4968 5.7151 13.1343 6.18303 12.9247C6.2566 12.3945 6.46915 12.0327 6.70363 11.8279C4.88233 11.6204 2.96765 10.9171 2.96765 7.77413C2.96765 6.87865 3.28799 6.14688 3.81258 5.57247C3.72743 5.36584 3.44677 4.5316 3.892 3.40175C3.892 3.40175 4.58058 3.18129 6.1476 4.24256C6.80164 4.06076 7.50315 3.96967 8.20003 3.96658C8.89691 3.96967 9.59893 4.06076 10.2543 4.24256C11.8194 3.18129 12.507 3.40175 12.507 3.40175C12.9534 4.5316 12.6726 5.36584 12.5874 5.57247C13.1132 6.14688 13.4313 6.87858 13.4313 7.77413C13.4313 10.9245 11.513 11.6183 9.68711 11.8213C9.9812 12.0759 10.2433 12.5751 10.2433 13.3403C10.2433 14.4378 10.2338 15.3211 10.2338 15.5913C10.2338 15.8096 10.3813 16.0654 10.7971 15.9848C14.0534 14.899 16.4 11.8254 16.4 8.20251C16.4 3.67233 12.7287 0 8.20003 0Z" fill="white"/>
<path d="M3.07522 11.6824C3.05735 11.7232 2.99363 11.7355 2.93571 11.7075C2.87665 11.6806 2.84345 11.6249 2.86261 11.5838C2.88017 11.5418 2.94389 11.53 3.00282 11.5583C3.06201 11.5851 3.09572 11.6413 3.07522 11.6824ZM3.47568 12.0436C3.43686 12.08 3.36095 12.0631 3.30942 12.0055C3.25617 11.9482 3.24621 11.8715 3.28561 11.8345C3.32564 11.7982 3.39926 11.8152 3.45263 11.8726C3.50588 11.9306 3.51629 12.0068 3.47568 12.0436ZM3.75042 12.5057C3.70049 12.5407 3.6189 12.5079 3.56852 12.4347C3.51865 12.3616 3.51865 12.2738 3.5696 12.2386C3.62017 12.2034 3.70049 12.2351 3.75157 12.3077C3.80137 12.3821 3.80144 12.4698 3.75042 12.5057ZM4.21499 13.0409C4.17036 13.0906 4.07535 13.0773 4.00575 13.0094C3.93463 12.9431 3.91477 12.8489 3.95953 12.7991C4.00467 12.7493 4.10025 12.7633 4.17036 12.8306C4.24104 12.8969 4.26255 12.9917 4.21499 13.0409ZM4.81542 13.2216C4.79582 13.286 4.70426 13.3153 4.61206 13.288C4.51999 13.2598 4.45972 13.1842 4.4783 13.1191C4.49745 13.0543 4.58939 13.0237 4.68229 13.053C4.77424 13.0811 4.83457 13.156 4.81542 13.2216ZM5.49885 13.2982C5.50115 13.3661 5.42294 13.4224 5.32614 13.4236C5.22878 13.4258 5.15005 13.3708 5.14903 13.3041C5.14903 13.2356 5.22545 13.1798 5.32276 13.1782C5.41955 13.1762 5.49885 13.2308 5.49885 13.2982ZM6.17016 13.2722C6.18178 13.3384 6.11448 13.4065 6.01839 13.4245C5.9239 13.442 5.83642 13.4011 5.82436 13.3355C5.81261 13.2676 5.88118 13.1996 5.97548 13.182C6.07177 13.1651 6.1579 13.2049 6.17016 13.2722Z" fill="white"/>
</svg>
