<svg width="2491" height="2429" viewBox="0 0 2491 2429" fill="none" xmlns="http://www.w3.org/2000/svg">
<path d="M1245.17 0C557.568 0 0 557.471 0 1245.17C0 1795.32 356.777 2262.06 851.523 2426.71C913.75 2438.23 936.602 2399.7 936.602 2366.81C936.602 2337.12 935.439 2239.02 934.912 2134.98C588.496 2210.3 515.4 1988.07 515.4 1988.07C458.76 1844.14 377.148 1805.88 377.148 1805.88C264.18 1728.59 385.664 1730.18 385.664 1730.18C510.703 1738.96 576.543 1858.5 576.543 1858.5C687.598 2048.86 867.832 1993.82 938.887 1962.01C950.059 1881.52 982.334 1826.6 1017.94 1795.51C741.377 1764.01 450.635 1657.25 450.635 1180.14C450.635 1044.2 499.277 933.115 578.936 845.918C566.006 814.551 523.389 687.91 590.996 516.396C590.996 516.396 695.557 482.93 933.506 644.033C1032.82 616.436 1139.35 602.607 1245.17 602.139C1350.99 602.607 1457.59 616.436 1557.1 644.033C1794.77 482.93 1899.18 516.396 1899.18 516.396C1966.95 687.91 1924.32 814.551 1911.39 845.918C1991.22 933.115 2039.53 1044.19 2039.53 1180.14C2039.53 1658.38 1748.24 1763.69 1470.98 1794.51C1515.63 1833.15 1555.43 1908.94 1555.43 2025.1C1555.43 2191.7 1553.98 2325.79 1553.98 2366.81C1553.98 2399.94 1576.4 2438.77 1639.52 2426.54C2133.99 2261.71 2490.32 1795.14 2490.32 1245.17C2490.32 557.471 1932.83 0 1245.17 0Z" fill="#161614"/>
<path d="M507.789 1869.41C505.054 1875.59 495.308 1877.45 486.451 1873.21C477.418 1869.14 472.339 1860.71 475.269 1854.5C477.955 1848.13 487.701 1846.35 496.714 1850.63C505.767 1854.68 510.923 1863.2 507.789 1869.41ZM569.039 1924.06C563.101 1929.56 551.49 1927.01 543.609 1918.3C535.464 1909.62 533.941 1898.02 539.966 1892.43C546.089 1886.93 557.349 1889.5 565.513 1898.19C573.658 1906.97 575.24 1918.5 569.029 1924.07M611.06 1993.98C603.423 1999.28 590.943 1994.31 583.238 1983.24C575.611 1972.17 575.611 1958.89 583.404 1953.57C591.138 1948.25 603.423 1953.03 611.236 1964.02C618.853 1975.28 618.853 1988.56 611.05 1993.99M682.115 2074.96C675.289 2082.48 660.757 2080.47 650.113 2070.2C639.234 2060.16 636.197 2045.91 643.043 2038.38C649.947 2030.84 664.566 2032.96 675.289 2043.15C686.099 2053.17 689.39 2067.52 682.115 2074.96ZM773.951 2102.31C770.953 2112.05 756.949 2116.49 742.847 2112.35C728.765 2108.08 719.546 2096.65 722.388 2086.8C725.318 2076.99 739.38 2072.37 753.589 2076.8C767.652 2081.05 776.88 2092.39 773.951 2102.31ZM878.482 2113.9C878.833 2124.17 866.871 2132.69 852.066 2132.88C837.173 2133.2 825.132 2124.89 824.976 2114.79C824.976 2104.42 836.666 2095.98 851.548 2095.74C866.353 2095.44 878.482 2103.7 878.482 2113.9ZM981.158 2109.96C982.935 2119.98 972.642 2130.28 957.945 2133.01C943.492 2135.65 930.113 2129.47 928.267 2119.54C926.47 2109.26 936.959 2098.98 951.382 2096.31C966.109 2093.75 979.283 2099.78 981.158 2109.96Z" fill="#161614"/>
</svg>
